# xmcd CD database file
#
# Track frame offsets:
#	187
#	30170
#	61320
#	93702
#	123850
#	155915
#	169112
#
# Disc length: 2481 seconds
#
# Revision: 0
# Processed by: cddbd v1.5.1PL0 Copyright (c) Steve Scherf et al.
# Submitted via: CDex 1.51
#
DISCID=5309af07
DTITLE=Harvey Mason - MARCHING IN THE STREET
DYEAR=1900
DGENRE=Jazz
TTITLE0=MARCHING IN THE STREET
TTITLE1=MODADJI
TTITLE2=HOP SCOTCH
TTITLE3=WILD RICE
TTITLE4=BALLAD FOR HEATHER
TTITLE5=FAIR THEE WELL
TTITLE6=BUILDING LOVE
EXTD=
EXTT0=
EXTT1=
EXTT2=
EXTT3=
EXTT4=
EXTT5=
EXTT6=
PLAYORDER=
